# xmcd
#
# Track frame offsets: 
#        150
#        12754
#        25612
#        36946
#        49372
#        60222
#        71957
#        84232
#        96413
#        110730
#        123934
#        136241
#        147512
#        160159
#        173950
#        187660
#
# Disc length: 2685 seconds
#
# Revision: 0
# Processed by: cddbd v1.5.2PL0 Copyright (c) Steve Scherf et al.
# Submitted via: ExactAudioCopy v0.99pb5
#
DISCID=d50a7b10
DTITLE=NumeroGroup - 1259 ES- The Cash Label
DYEAR=2019
DGENRE=Soul
TTITLE0=Harrison/Pickin' Cotton
TTITLE1=Skip Drake/Wrapped Around Your Finger
TTITLE2=The Notations/That Girl
TTITLE3=Soul Revival/Do What You Gotta Do
TTITLE4=Harrison and The Majestic Kind/Can You Fine Me Love
TTITLE5=Harlem Meat Company/I Don't Know Why
TTITLE6=Hayes Ware/Bad Man
TTITLE7=Sonny Carter/Step Out Pt.1
TTITLE8=Harlem Meat Company/I'm Not Gonna Be Anybody's Fool
TTITLE9=Iron Jaw Harris/All Ready To Go
TTITLE10=Skip Drake/Don't Do It Sister, Don't Do It Brother
TTITLE11=Harrison/Uncle Soul Wants You
TTITLE12=Harrison and The Majestic Kind/Tearing Me Up Inside
TTITLE13=Iron Jaw Harris/Everybody Ain't The Same
TTITLE14=Soul Revival/Good Feelin'
TTITLE15=The Notations/This Time I'm For Real
EXTD=
EXTT0=
EXTT1=
EXTT2=
EXTT3=
EXTT4=
EXTT5=
EXTT6=
EXTT7=
EXTT8=
EXTT9=
EXTT10=
EXTT11=
EXTT12=
EXTT13=
EXTT14=
EXTT15=
PLAYORDER=
